# xmcd
#
# Track frame offsets: 
#        150
#        18325
#        37191
#        51929
#        63466
#        80864
#        98587
#        119967
#        129531
#        148197
#        161979
#        170798
#
# Disc length: 2649 seconds
#
# Revision: 0
# Processed by: cddbd v1.5.2PL0 Copyright (c) Steve Scherf et al.
# Submitted via: ExactAudioCopy v1.3
#
DISCID=bc0a570c
DTITLE=Bobby ''BlackHat'' Walters - Hot Blues Mess
DYEAR=2014
DGENRE=Blues
TTITLE0=Good Explanation (Short Version)
TTITLE1=Come on Children
TTITLE2=Cock-A-Doodle-Do
TTITLE3=Hot Blues Mess
TTITLE4=Fever
TTITLE5=Better Than Yesterday
TTITLE6=I Know What You Mean
TTITLE7=I'm a Good Man
TTITLE8=Empty House
TTITLE9=Blues Praise
TTITLE10=My Favorite Blues Joint
TTITLE11=Good Explanation (Long Version)
EXTD=
EXTT0=
EXTT1=
EXTT2=
EXTT3=
EXTT4=
EXTT5=
EXTT6=
EXTT7=
EXTT8=
EXTT9=
EXTT10=
EXTT11=
PLAYORDER=
